# xmcd
#
# Track frame offsets: 
#        150
#        16019
#        35671
#        61114
#        93904
#        108620
#        135598
#        157172
#
# Disc length: 2292 seconds
#
# Revision: 0
# Processed by: cddbd v1.5.1PL2 Copyright (c) Steve Scherf et al.
# Submitted via: ExactAudioCopy v0.95a5
#
DISCID=6008f208
DTITLE=Workin' Stiffs - Blues and Rock Riffs
DYEAR=2005
DGENRE=Blues
TTITLE0=Snake Bit
TTITLE1=Sight Set On You
TTITLE2=Mojo
TTITLE3=Fever
TTITLE4=Tough Enough
TTITLE5=Empty Arms Hotel
TTITLE6=Rather Go Blind
TTITLE7=Inie Weenie
EXTD=
EXTT0=
EXTT1=
EXTT2=
EXTT3=
EXTT4=
EXTT5=
EXTT6=
EXTT7=
PLAYORDER=
